<svg xmlns="http://www.w3.org/2000/svg" width="1200" height="720" viewBox="0 0 1200 720">
<style>
.title { font: 700 28px Georgia, 'Times New Roman', serif; fill: #0f172a; }
.subtitle { font: 400 14px Georgia, 'Times New Roman', serif; fill: #475569; }
.axis { font: 500 13px 'Trebuchet MS', Verdana, sans-serif; fill: #0f172a; }
.label { font: 600 12px 'Trebuchet MS', Verdana, sans-serif; fill: #0f172a; }
.small { font: 500 11px 'Trebuchet MS', Verdana, sans-serif; fill: #475569; }
.value { font: 700 12px 'Trebuchet MS', Verdana, sans-serif; fill: #0f172a; }
</style>
<rect x="0" y="0" width="1200" height="720" fill="#f8fafc"/>
<rect x="40" y="40" rx="28" ry="28" width="1120" height="640" fill="#ffffff" stroke="#e2e8f0"/><text x="70" y="85" class="title">MiniOS Mean-Latency Speedup Relative to Debian</text><text x="70" y="110" class="subtitle">Values above 1.0 indicate that MiniOS completes the model faster on average.</text><line x1="110" y1="610.00" x2="1140" y2="610.00" stroke="#dbe4ef" stroke-dasharray="4 6"/><text x="98" y="614.00" text-anchor="end" class="small">0.00x</text><line x1="110" y1="512.00" x2="1140" y2="512.00" stroke="#dbe4ef" stroke-dasharray="4 6"/><text x="98" y="516.00" text-anchor="end" class="small">0.46x</text><line x1="110" y1="414.00" x2="1140" y2="414.00" stroke="#dbe4ef" stroke-dasharray="4 6"/><text x="98" y="418.00" text-anchor="end" class="small">0.92x</text><line x1="110" y1="316.00" x2="1140" y2="316.00" stroke="#dbe4ef" stroke-dasharray="4 6"/><text x="98" y="320.00" text-anchor="end" class="small">1.37x</text><line x1="110" y1="218.00" x2="1140" y2="218.00" stroke="#dbe4ef" stroke-dasharray="4 6"/><text x="98" y="222.00" text-anchor="end" class="small">1.83x</text><line x1="110" y1="120.00" x2="1140" y2="120.00" stroke="#dbe4ef" stroke-dasharray="4 6"/><text x="98" y="124.00" text-anchor="end" class="small">2.29x</text><line x1="110" y1="395.92" x2="1140" y2="395.92" stroke="#7c2d12" stroke-width="2" stroke-dasharray="8 6"/><line x1="110" y1="120" x2="110" y2="610" stroke="#94a3b8"/><line x1="110" y1="610" x2="1140" y2="610" stroke="#94a3b8"/><rect x="191.67" y="218.00" width="180" height="392.00" rx="16" fill="#0f766e"/><text x="281.66666666666663" y="206.00" text-anchor="middle" class="value">1.83x</text><text x="281.66666666666663" y="644" text-anchor="middle" class="label">Mnist</text><rect x="535.00" y="350.08" width="180" height="259.92" rx="16" fill="#14b8a6"/><text x="625.0" y="338.08" text-anchor="middle" class="value">1.21x</text><text x="625.0" y="644" text-anchor="middle" class="label">Squeezenet</text><rect x="878.33" y="342.44" width="180" height="267.56" rx="16" fill="#2dd4bf"/><text x="968.3333333333333" y="330.44" text-anchor="middle" class="value">1.25x</text><text x="968.3333333333333" y="644" text-anchor="middle" class="label">Shufflenet</text>
</svg>