<svg xmlns="http://www.w3.org/2000/svg" width="1200" height="720" viewBox="0 0 1200 720">
<style>
.title { font: 700 28px Georgia, 'Times New Roman', serif; fill: #0f172a; }
.subtitle { font: 400 14px Georgia, 'Times New Roman', serif; fill: #475569; }
.axis { font: 500 13px 'Trebuchet MS', Verdana, sans-serif; fill: #0f172a; }
.label { font: 600 12px 'Trebuchet MS', Verdana, sans-serif; fill: #0f172a; }
.small { font: 500 11px 'Trebuchet MS', Verdana, sans-serif; fill: #475569; }
.value { font: 700 12px 'Trebuchet MS', Verdana, sans-serif; fill: #0f172a; }
</style>
<rect x="0" y="0" width="1200" height="720" fill="#f8fafc"/>
<rect x="40" y="40" rx="28" ry="28" width="1120" height="640" fill="#ffffff" stroke="#e2e8f0"/><text x="70" y="85" class="title">Reported Memory Footprint by Benchmark Harness</text><text x="70" y="110" class="subtitle">Log-scaled axis. Metric definitions differ across OSes and are discussed in the report.</text><line x1="110" y1="671.50" x2="1140" y2="671.50" stroke="#dbe4ef" stroke-dasharray="4 6"/><text x="98" y="675.50" text-anchor="end" class="small">10.0</text><line x1="110" y1="528.93" x2="1140" y2="528.93" stroke="#dbe4ef" stroke-dasharray="4 6"/><text x="98" y="532.93" text-anchor="end" class="small">100</text><line x1="110" y1="386.37" x2="1140" y2="386.37" stroke="#dbe4ef" stroke-dasharray="4 6"/><text x="98" y="390.37" text-anchor="end" class="small">1,000</text><line x1="110" y1="243.81" x2="1140" y2="243.81" stroke="#dbe4ef" stroke-dasharray="4 6"/><text x="98" y="247.81" text-anchor="end" class="small">10,000</text><line x1="110" y1="101.24" x2="1140" y2="101.24" stroke="#dbe4ef" stroke-dasharray="4 6"/><text x="98" y="105.24" text-anchor="end" class="small">100,000</text><line x1="110" y1="120" x2="110" y2="610" stroke="#94a3b8"/><line x1="110" y1="610" x2="1140" y2="610" stroke="#94a3b8"/><text x="28" y="365.0" transform="rotate(-90 28 365.0)" class="axis">Reported memory metric (KB, log scale)</text><rect x="216.67" y="610.00" width="82" height="0.00" rx="10" fill="#0f766e" opacity="0.95"/><text x="257.67" y="600.00" text-anchor="middle" class="value">27.00</text><rect x="305.67" y="145.79" width="82" height="464.21" rx="10" fill="#d97706" opacity="0.95"/><text x="346.67" y="135.79" text-anchor="middle" class="value">48,700.0</text><text x="281.66666666666663" y="644" text-anchor="middle" class="label">Mnist</text><rect x="560.00" y="281.77" width="82" height="328.23" rx="10" fill="#0f766e" opacity="0.95"/><text x="601.00" y="271.77" text-anchor="middle" class="value">5,416.0</text><rect x="649.00" y="130.05" width="82" height="479.95" rx="10" fill="#d97706" opacity="0.95"/><text x="690.00" y="120.05" text-anchor="middle" class="value">62,792.0</text><text x="625.0" y="644" text-anchor="middle" class="label">Squeezenet</text><rect x="903.33" y="175.61" width="82" height="434.39" rx="10" fill="#0f766e" opacity="0.95"/><text x="944.33" y="165.61" text-anchor="middle" class="value">30,085.0</text><rect x="992.33" y="120.00" width="82" height="490.00" rx="10" fill="#d97706" opacity="0.95"/><text x="1033.33" y="110.00" text-anchor="middle" class="value">73,864.0</text><text x="968.3333333333333" y="644" text-anchor="middle" class="label">Shufflenet</text><rect x="950" y="68" width="14" height="14" rx="3" fill="#0f766e"/><text x="974" y="80" class="small">MiniOS</text><rect x="950" y="92" width="14" height="14" rx="3" fill="#d97706"/><text x="974" y="104" class="small">Debian</text>
</svg>