<svg xmlns="http://www.w3.org/2000/svg" width="1200" height="720" viewBox="0 0 1200 720">
<style>
.title { font: 700 28px Georgia, 'Times New Roman', serif; fill: #0f172a; }
.subtitle { font: 400 14px Georgia, 'Times New Roman', serif; fill: #475569; }
.axis { font: 500 13px 'Trebuchet MS', Verdana, sans-serif; fill: #0f172a; }
.label { font: 600 12px 'Trebuchet MS', Verdana, sans-serif; fill: #0f172a; }
.small { font: 500 11px 'Trebuchet MS', Verdana, sans-serif; fill: #475569; }
.value { font: 700 12px 'Trebuchet MS', Verdana, sans-serif; fill: #0f172a; }
</style>
<rect x="0" y="0" width="1200" height="720" fill="#f8fafc"/>
<rect x="40" y="40" rx="28" ry="28" width="1120" height="640" fill="#ffffff" stroke="#e2e8f0"/><text x="70" y="85" class="title">Tail Latency (P95) Across 50 Timed Runs</text><text x="70" y="110" class="subtitle">P95 is taken as the sorted sample at index ceil(0.95n) for n = 50.</text><line x1="110" y1="610.00" x2="1140" y2="610.00" stroke="#dbe4ef" stroke-dasharray="4 6"/><text x="98" y="614.00" text-anchor="end" class="small">0.0</text><line x1="110" y1="512.00" x2="1140" y2="512.00" stroke="#dbe4ef" stroke-dasharray="4 6"/><text x="98" y="516.00" text-anchor="end" class="small">742</text><line x1="110" y1="414.00" x2="1140" y2="414.00" stroke="#dbe4ef" stroke-dasharray="4 6"/><text x="98" y="418.00" text-anchor="end" class="small">1,483</text><line x1="110" y1="316.00" x2="1140" y2="316.00" stroke="#dbe4ef" stroke-dasharray="4 6"/><text x="98" y="320.00" text-anchor="end" class="small">2,225</text><line x1="110" y1="218.00" x2="1140" y2="218.00" stroke="#dbe4ef" stroke-dasharray="4 6"/><text x="98" y="222.00" text-anchor="end" class="small">2,966</text><line x1="110" y1="120.00" x2="1140" y2="120.00" stroke="#dbe4ef" stroke-dasharray="4 6"/><text x="98" y="124.00" text-anchor="end" class="small">3,708</text><line x1="110" y1="120" x2="110" y2="610" stroke="#94a3b8"/><line x1="110" y1="610" x2="1140" y2="610" stroke="#94a3b8"/><text x="28" y="365.0" transform="rotate(-90 28 365.0)" class="axis">P95 latency (ms)</text><rect x="216.67" y="609.31" width="82" height="0.69" rx="10" fill="#0f766e" opacity="0.95"/><text x="257.67" y="599.31" text-anchor="middle" class="value">5.20</text><rect x="305.67" y="608.72" width="82" height="1.28" rx="10" fill="#d97706" opacity="0.95"/><text x="346.67" y="598.72" text-anchor="middle" class="value">9.71</text><text x="281.66666666666663" y="644" text-anchor="middle" class="label">Mnist</text><rect x="560.00" y="271.44" width="82" height="338.56" rx="10" fill="#0f766e" opacity="0.95"/><text x="601.00" y="261.44" text-anchor="middle" class="value">2,562.0</text><rect x="649.00" y="183.91" width="82" height="426.09" rx="10" fill="#d97706" opacity="0.95"/><text x="690.00" y="173.91" text-anchor="middle" class="value">3,224.3</text><text x="625.0" y="644" text-anchor="middle" class="label">Squeezenet</text><rect x="903.33" y="470.57" width="82" height="139.43" rx="10" fill="#0f766e" opacity="0.95"/><text x="944.33" y="460.57" text-anchor="middle" class="value">1,055.1</text><rect x="992.33" y="434.90" width="82" height="175.10" rx="10" fill="#d97706" opacity="0.95"/><text x="1033.33" y="424.90" text-anchor="middle" class="value">1,325.1</text><text x="968.3333333333333" y="644" text-anchor="middle" class="label">Shufflenet</text><rect x="950" y="68" width="14" height="14" rx="3" fill="#0f766e"/><text x="974" y="80" class="small">MiniOS</text><rect x="950" y="92" width="14" height="14" rx="3" fill="#d97706"/><text x="974" y="104" class="small">Debian</text>
</svg>