<svg xmlns="http://www.w3.org/2000/svg" width="1400" height="560" viewBox="0 0 1400 560">
<style>
.title { font: 700 28px Georgia, 'Times New Roman', serif; fill: #0f172a; }
.subtitle { font: 400 14px Georgia, 'Times New Roman', serif; fill: #475569; }
.axis { font: 500 13px 'Trebuchet MS', Verdana, sans-serif; fill: #0f172a; }
.label { font: 600 12px 'Trebuchet MS', Verdana, sans-serif; fill: #0f172a; }
.small { font: 500 11px 'Trebuchet MS', Verdana, sans-serif; fill: #475569; }
.value { font: 700 12px 'Trebuchet MS', Verdana, sans-serif; fill: #0f172a; }
</style>
<rect x="0" y="0" width="1400" height="560" fill="#f8fafc"/>
<rect x="24" y="24" rx="24" ry="24" width="1352" height="512" fill="#ffffff" stroke="#e2e8f0"/><text x="56" y="68" class="title">Per-Iteration Latency Stability Over 50 Timed Runs</text><text x="56" y="92" class="subtitle">Each panel uses its own vertical scale so that local variance is visible.</text><text x="76" y="112" class="label">Mnist</text><rect x="56" y="124" width="390" height="380" rx="18" fill="#fcfdff" stroke="#e2e8f0"/><line x1="108" y1="448.00" x2="428" y2="448.00" stroke="#dbe4ef" stroke-dasharray="4 6"/><text x="98" y="452.00" text-anchor="end" class="small">4.3</text><line x1="108" y1="367.50" x2="428" y2="367.50" stroke="#dbe4ef" stroke-dasharray="4 6"/><text x="98" y="371.50" text-anchor="end" class="small">5.8</text><line x1="108" y1="287.00" x2="428" y2="287.00" stroke="#dbe4ef" stroke-dasharray="4 6"/><text x="98" y="291.00" text-anchor="end" class="small">7.4</text><line x1="108" y1="206.50" x2="428" y2="206.50" stroke="#dbe4ef" stroke-dasharray="4 6"/><text x="98" y="210.50" text-anchor="end" class="small">9.0</text><line x1="108" y1="126.00" x2="428" y2="126.00" stroke="#dbe4ef" stroke-dasharray="4 6"/><text x="98" y="130.00" text-anchor="end" class="small">10.6</text><line x1="108.00" y1="126" x2="108.00" y2="448" stroke="#dbe4ef" stroke-dasharray="4 6"/><text x="108.00" y="466" text-anchor="middle" class="small">1</text><line x1="173.31" y1="126" x2="173.31" y2="448" stroke="#dbe4ef" stroke-dasharray="4 6"/><text x="173.31" y="466" text-anchor="middle" class="small">11</text><line x1="238.61" y1="126" x2="238.61" y2="448" stroke="#dbe4ef" stroke-dasharray="4 6"/><text x="238.61" y="466" text-anchor="middle" class="small">21</text><line x1="303.92" y1="126" x2="303.92" y2="448" stroke="#dbe4ef" stroke-dasharray="4 6"/><text x="303.92" y="466" text-anchor="middle" class="small">31</text><line x1="369.22" y1="126" x2="369.22" y2="448" stroke="#dbe4ef" stroke-dasharray="4 6"/><text x="369.22" y="466" text-anchor="middle" class="small">41</text><line x1="108" y1="126" x2="108" y2="448" stroke="#94a3b8"/><line x1="108" y1="448" x2="428" y2="448" stroke="#94a3b8"/><polyline fill="none" stroke="#0f766e" stroke-width="3" points="108.00,410.51 114.53,405.41 121.06,410.51 127.59,405.41 134.12,374.84 140.65,410.51 147.18,410.51 153.71,415.60 160.24,415.60 166.78,405.41 173.31,420.70 179.84,415.60 186.37,410.51 192.90,415.60 199.43,415.60 205.96,410.51 212.49,415.60 219.02,410.51 225.55,385.03 232.08,410.51 238.61,420.70 245.14,410.51 251.67,405.41 258.20,420.70 264.73,420.70 271.27,405.41 277.80,420.70 284.33,420.70 290.86,405.41 297.39,415.60 303.92,420.70 310.45,420.70 316.98,400.32 323.51,415.60 330.04,420.70 336.57,400.32 343.10,420.70 349.63,415.60 356.16,405.41 362.69,405.41 369.22,420.70 375.76,420.70 382.29,415.60 388.82,425.79 395.35,425.79 401.88,420.70 408.41,415.60 414.94,425.79 421.47,420.70 428.00,420.70"/><polyline fill="none" stroke="#d97706" stroke-width="3" points="108.00,161.41 114.53,201.36 121.06,209.88 127.59,206.81 134.12,212.17 140.65,219.74 147.18,203.27 153.71,202.60 160.24,204.77 166.78,218.02 173.31,212.48 179.84,223.54 186.37,203.46 192.90,212.93 199.43,212.98 205.96,219.56 212.49,205.55 219.02,211.11 225.55,200.29 232.08,202.08 238.61,186.63 245.14,202.52 251.67,201.46 258.20,197.76 264.73,222.36 271.27,212.58 277.80,213.53 284.33,205.25 290.86,198.62 297.39,207.06 303.92,201.44 310.45,209.46 316.98,211.11 323.51,221.12 330.04,203.33 336.57,219.73 343.10,189.78 349.63,189.40 356.16,198.38 362.69,187.54 369.22,188.77 375.76,148.21 382.29,201.89 388.82,208.14 395.35,211.36 401.88,190.48 408.41,170.29 414.94,214.99 421.47,209.02 428.00,215.55"/><rect x="308" y="138" width="12" height="12" rx="3" fill="#0f766e"/><text x="326" y="149" class="small">MiniOS</text><rect x="308" y="158" width="12" height="12" rx="3" fill="#d97706"/><text x="326" y="169" class="small">Debian</text><text x="525" y="112" class="label">Squeezenet</text><rect x="505" y="124" width="390" height="380" rx="18" fill="#fcfdff" stroke="#e2e8f0"/><line x1="557" y1="448.00" x2="877" y2="448.00" stroke="#dbe4ef" stroke-dasharray="4 6"/><text x="547" y="452.00" text-anchor="end" class="small">2356.9</text><line x1="557" y1="367.50" x2="877" y2="367.50" stroke="#dbe4ef" stroke-dasharray="4 6"/><text x="547" y="371.50" text-anchor="end" class="small">2756.1</text><line x1="557" y1="287.00" x2="877" y2="287.00" stroke="#dbe4ef" stroke-dasharray="4 6"/><text x="547" y="291.00" text-anchor="end" class="small">3155.3</text><line x1="557" y1="206.50" x2="877" y2="206.50" stroke="#dbe4ef" stroke-dasharray="4 6"/><text x="547" y="210.50" text-anchor="end" class="small">3554.5</text><line x1="557" y1="126.00" x2="877" y2="126.00" stroke="#dbe4ef" stroke-dasharray="4 6"/><text x="547" y="130.00" text-anchor="end" class="small">3953.7</text><line x1="557.00" y1="126" x2="557.00" y2="448" stroke="#dbe4ef" stroke-dasharray="4 6"/><text x="557.00" y="466" text-anchor="middle" class="small">1</text><line x1="622.31" y1="126" x2="622.31" y2="448" stroke="#dbe4ef" stroke-dasharray="4 6"/><text x="622.31" y="466" text-anchor="middle" class="small">11</text><line x1="687.61" y1="126" x2="687.61" y2="448" stroke="#dbe4ef" stroke-dasharray="4 6"/><text x="687.61" y="466" text-anchor="middle" class="small">21</text><line x1="752.92" y1="126" x2="752.92" y2="448" stroke="#dbe4ef" stroke-dasharray="4 6"/><text x="752.92" y="466" text-anchor="middle" class="small">31</text><line x1="818.22" y1="126" x2="818.22" y2="448" stroke="#dbe4ef" stroke-dasharray="4 6"/><text x="818.22" y="466" text-anchor="middle" class="small">41</text><line x1="557" y1="126" x2="557" y2="448" stroke="#94a3b8"/><line x1="557" y1="448" x2="877" y2="448" stroke="#94a3b8"/><polyline fill="none" stroke="#0f766e" stroke-width="3" points="557.00,416.34 563.53,423.03 570.06,424.24 576.59,414.70 583.12,420.77 589.65,424.50 596.18,419.32 602.71,415.73 609.24,419.32 615.78,420.39 622.31,412.89 628.84,422.34 635.37,424.60 641.90,420.85 648.43,423.11 654.96,424.95 661.49,425.79 668.02,424.87 674.55,417.59 681.08,413.29 687.61,416.09 694.14,417.61 700.67,415.45 707.20,413.79 713.73,411.96 720.27,395.61 726.80,416.36 733.33,414.98 739.86,419.02 746.39,418.53 752.92,415.25 759.45,416.50 765.98,414.64 772.51,417.46 779.04,418.27 785.57,414.22 792.10,417.79 798.63,418.17 805.16,415.57 811.69,416.40 818.22,418.37 824.76,419.16 831.29,420.15 837.82,418.05 844.35,418.15 850.88,406.64 857.41,406.15 863.94,414.28 870.47,419.28 877.00,419.36"/><polyline fill="none" stroke="#d97706" stroke-width="3" points="557.00,309.56 563.53,316.81 570.06,298.70 576.59,273.08 583.12,317.35 589.65,303.87 596.18,148.21 602.71,297.89 609.24,300.01 615.78,326.28 622.31,319.23 628.84,325.98 635.37,322.75 641.90,318.99 648.43,307.02 654.96,300.20 661.49,307.46 668.02,312.41 674.55,310.43 681.08,312.35 687.61,314.58 694.14,312.75 700.67,314.83 707.20,316.50 713.73,318.14 720.27,315.73 726.80,300.46 733.33,293.48 739.86,293.56 746.39,292.67 752.92,294.03 759.45,289.46 765.98,289.23 772.51,267.19 779.04,278.07 785.57,303.00 792.10,315.79 798.63,329.46 805.16,337.58 811.69,325.00 818.22,328.83 824.76,330.45 831.29,330.30 837.82,330.21 844.35,332.21 850.88,334.76 857.41,336.76 863.94,332.52 870.47,334.93 877.00,335.97"/><rect x="757" y="138" width="12" height="12" rx="3" fill="#0f766e"/><text x="775" y="149" class="small">MiniOS</text><rect x="757" y="158" width="12" height="12" rx="3" fill="#d97706"/><text x="775" y="169" class="small">Debian</text><text x="974" y="112" class="label">Shufflenet</text><rect x="954" y="124" width="390" height="380" rx="18" fill="#fcfdff" stroke="#e2e8f0"/><line x1="1006" y1="448.00" x2="1326" y2="448.00" stroke="#dbe4ef" stroke-dasharray="4 6"/><text x="996" y="452.00" text-anchor="end" class="small">971.7</text><line x1="1006" y1="367.50" x2="1326" y2="367.50" stroke="#dbe4ef" stroke-dasharray="4 6"/><text x="996" y="371.50" text-anchor="end" class="small">1209.8</text><line x1="1006" y1="287.00" x2="1326" y2="287.00" stroke="#dbe4ef" stroke-dasharray="4 6"/><text x="996" y="291.00" text-anchor="end" class="small">1447.8</text><line x1="1006" y1="206.50" x2="1326" y2="206.50" stroke="#dbe4ef" stroke-dasharray="4 6"/><text x="996" y="210.50" text-anchor="end" class="small">1685.8</text><line x1="1006" y1="126.00" x2="1326" y2="126.00" stroke="#dbe4ef" stroke-dasharray="4 6"/><text x="996" y="130.00" text-anchor="end" class="small">1923.9</text><line x1="1006.00" y1="126" x2="1006.00" y2="448" stroke="#dbe4ef" stroke-dasharray="4 6"/><text x="1006.00" y="466" text-anchor="middle" class="small">1</text><line x1="1071.31" y1="126" x2="1071.31" y2="448" stroke="#dbe4ef" stroke-dasharray="4 6"/><text x="1071.31" y="466" text-anchor="middle" class="small">11</text><line x1="1136.61" y1="126" x2="1136.61" y2="448" stroke="#dbe4ef" stroke-dasharray="4 6"/><text x="1136.61" y="466" text-anchor="middle" class="small">21</text><line x1="1201.92" y1="126" x2="1201.92" y2="448" stroke="#dbe4ef" stroke-dasharray="4 6"/><text x="1201.92" y="466" text-anchor="middle" class="small">31</text><line x1="1267.22" y1="126" x2="1267.22" y2="448" stroke="#dbe4ef" stroke-dasharray="4 6"/><text x="1267.22" y="466" text-anchor="middle" class="small">41</text><line x1="1006" y1="126" x2="1006" y2="448" stroke="#94a3b8"/><line x1="1006" y1="448" x2="1326" y2="448" stroke="#94a3b8"/><polyline fill="none" stroke="#0f766e" stroke-width="3" points="1006.00,423.29 1012.53,423.83 1019.06,424.00 1025.59,424.14 1032.12,423.32 1038.65,423.97 1045.18,424.74 1051.71,424.14 1058.24,424.81 1064.78,425.39 1071.31,424.20 1077.84,424.85 1084.37,425.79 1090.90,424.51 1097.43,425.12 1103.96,424.00 1110.49,421.87 1117.02,420.69 1123.55,419.81 1130.08,421.63 1136.61,422.11 1143.14,423.12 1149.67,413.58 1156.20,400.97 1162.73,420.52 1169.27,424.20 1175.80,423.36 1182.33,423.70 1188.86,424.03 1195.39,423.36 1201.92,422.55 1208.45,421.43 1214.98,421.70 1221.51,421.43 1228.04,422.61 1234.57,422.07 1241.10,421.90 1247.63,421.30 1254.16,422.45 1260.69,422.11 1267.22,423.05 1273.76,422.78 1280.29,423.02 1286.82,424.71 1293.35,424.00 1299.88,425.49 1306.41,424.17 1312.94,419.94 1319.47,423.73 1326.00,424.00"/><polyline fill="none" stroke="#d97706" stroke-width="3" points="1006.00,338.24 1012.53,338.16 1019.06,342.03 1025.59,340.44 1032.12,341.18 1038.65,340.91 1045.18,338.72 1051.71,337.98 1058.24,327.66 1064.78,339.28 1071.31,338.70 1077.84,339.75 1084.37,338.34 1090.90,340.31 1097.43,341.84 1103.96,338.12 1110.49,340.29 1117.02,336.76 1123.55,340.61 1130.08,340.23 1136.61,338.49 1143.14,339.89 1149.67,336.73 1156.20,337.93 1162.73,337.67 1169.27,338.51 1175.80,337.23 1182.33,338.24 1188.86,338.82 1195.39,333.93 1201.92,339.02 1208.45,334.67 1214.98,339.10 1221.51,333.39 1228.04,336.37 1234.57,330.59 1241.10,335.44 1247.63,338.58 1254.16,328.51 1260.69,334.86 1267.22,339.23 1273.76,340.04 1280.29,337.33 1286.82,148.21 1293.35,337.25 1299.88,340.04 1306.41,339.60 1312.94,338.72 1319.47,339.00 1326.00,338.54"/><rect x="1206" y="138" width="12" height="12" rx="3" fill="#0f766e"/><text x="1224" y="149" class="small">MiniOS</text><rect x="1206" y="158" width="12" height="12" rx="3" fill="#d97706"/><text x="1224" y="169" class="small">Debian</text>
</svg>